<svg width="30" height="30" viewBox="0 0 30 30" fill="none" xmlns="http://www.w3.org/2000/svg">
<path d="M1.25 6.25H28.75" stroke="#00A3FF" stroke-width="2" stroke-miterlimit="10" stroke-linecap="square"/>
<path d="M1.25 12.5H28.75V3.75C28.75 2.375 27.625 1.25 26.25 1.25H20H3.75C2.375 1.25 1.25 2.375 1.25 3.75V20C1.25 21.375 2.375 22.5 3.75 22.5H11.25" stroke="#00A3FF" stroke-width="2" stroke-miterlimit="10" stroke-linecap="square"/>
<path d="M22.5 28.75C25.9518 28.75 28.75 25.9518 28.75 22.5C28.75 19.0482 25.9518 16.25 22.5 16.25C19.0482 16.25 16.25 19.0482 16.25 22.5C16.25 25.9518 19.0482 28.75 22.5 28.75Z" stroke="#00A3FF" stroke-width="2" stroke-miterlimit="10" stroke-linecap="square"/>
<path d="M22.5 20V25" stroke="#00A3FF" stroke-width="2" stroke-miterlimit="10" stroke-linecap="square"/>
<path d="M20 22.5H25" stroke="#00A3FF" stroke-width="2" stroke-miterlimit="10" stroke-linecap="square"/>
<path d="M5.625 17.5H11.25" stroke="#00A3FF" stroke-width="2" stroke-miterlimit="10" stroke-linecap="square"/>
</svg>
