<svg xmlns="http://www.w3.org/2000/svg" width="12.729" height="10.002" viewBox="0 0 12.729 10.002">
    <defs>
        <style>
            .cls-1{fill:#70c391}
        </style>
    </defs>
    <g id="Group_5129" data-name="Group 5129" transform="rotate(180 -35.588 -3193.403)">
        <path id="Path_2733" d="M-78.212-6393.271a6.488 6.488 0 0 1-.568 2.554 5.639 5.639 0 0 1-1.377 2 9.344 9.344 0 0 1-1.832 1.256 6.476 6.476 0 0 1-1.27.547 1.76 1.76 0 0 1-.375.07.234.234 0 0 1-.235-.361.919.919 0 0 1 .231-.279 6.117 6.117 0 0 1 .519-.368 7.573 7.573 0 0 0 1.171-.84 5.63 5.63 0 0 0 .948-1.148.9.9 0 0 0 .156-.548.7.7 0 0 0-.238-.452 2.776 2.776 0 0 0-.785-.491 5.924 5.924 0 0 1-1.1-.617 2.049 2.049 0 0 1-.856-1.522 4.311 4.311 0 0 1-.012-1.13 2.468 2.468 0 0 1 1.812-2.072 2.736 2.736 0 0 1 2.869.746 3.17 3.17 0 0 1 .808 1.524 4.557 4.557 0 0 1 .134 1.131z" class="cls-1" data-name="Path 2733"/>
        <path id="Path_2734" d="M353.323-6390.384a6.538 6.538 0 0 1-.672 2.608 5.474 5.474 0 0 1-1.232 1.73 9.1 9.1 0 0 1-1.747 1.222 6.787 6.787 0 0 1-1.392.614 1.833 1.833 0 0 1-.383.071.227.227 0 0 1-.241-.325.563.563 0 0 1 .161-.238 8.66 8.66 0 0 1 .65-.476 7.371 7.371 0 0 0 1.123-.809 5.74 5.74 0 0 0 .943-1.14 1.407 1.407 0 0 0 .1-.213.673.673 0 0 0-.169-.783 2.464 2.464 0 0 0-.708-.458 7.419 7.419 0 0 1-1.082-.583 2.1 2.1 0 0 1-.968-1.655 4.789 4.789 0 0 1-.011-1.042 2.568 2.568 0 0 1 2.02-2.166 2.857 2.857 0 0 1 3.081 1.359 4.308 4.308 0 0 1 .527 2.284z" class="cls-1" data-name="Path 2734" transform="translate(-424.501 -2.667)"/>
    </g>
</svg>
